<svg width="6" height="6" viewBox="0 0 6 6" fill="none" xmlns="http://www.w3.org/2000/svg">
<g clip-path="url(#clip0_1921_4721)">
<g clip-path="url(#clip1_1921_4721)">
<path d="M4.98327 3.26041C4.93606 3.6204 4.79174 3.96075 4.56581 4.24496C4.33987 4.52916 4.04083 4.7465 3.70076 4.87367C3.36068 5.00084 2.99241 5.03303 2.63543 4.96681C2.27845 4.90058 1.94623 4.73843 1.6744 4.49774C1.40258 4.25705 1.20139 3.94691 1.09243 3.60058C0.983473 3.25424 0.970845 2.88478 1.0559 2.53181C1.14096 2.17884 1.3205 1.85569 1.57526 1.597C1.83002 1.33832 2.15039 1.15386 2.50202 1.06341C3.47677 0.813414 4.48577 1.31516 4.85827 2.25016M5.00002 1.00012V2.25012H3.75002" stroke="#9A6A97" stroke-width="0.6" stroke-linecap="round" stroke-linejoin="round"/>
</g>
</g>
<defs>
<clipPath id="clip0_1921_4721">
<rect width="6" height="6" fill="white"/>
</clipPath>
<clipPath id="clip1_1921_4721">
<rect width="6" height="6" fill="white"/>
</clipPath>
</defs>
</svg>
